<svg width="58" height="42" viewBox="0 0 58 42" fill="none" xmlns="http://www.w3.org/2000/svg">
<path fill-rule="evenodd" clip-rule="evenodd" d="M0.53179 1.67797C0.771422 1.0172 1.3991 0.577148 2.10198 0.577148H55.7729C56.4757 0.577148 57.1034 1.01713 57.3431 1.67784C57.5827 2.33855 57.3831 3.07861 56.8438 3.52922L30.0129 25.9443C29.393 26.4622 28.4913 26.4622 27.8714 25.9445L1.03135 3.5294C0.491853 3.07884 0.292158 2.33875 0.53179 1.67797ZM6.70767 3.91766L28.9418 22.4862L51.1684 3.91766H6.70767Z" fill="currentColor"/>
<path fill-rule="evenodd" clip-rule="evenodd" d="M2.1019 0.577148C3.02436 0.577148 3.77216 1.32495 3.77216 2.24741V36.4345L23.6503 19.8335C24.3584 19.2422 25.4117 19.3369 26.003 20.0449C26.5943 20.7529 26.4996 21.8062 25.7916 22.3975L3.17253 41.2875C2.67485 41.7031 1.98159 41.7931 1.39425 41.5184C0.806913 41.2437 0.431641 40.6539 0.431641 40.0055V2.24741C0.431641 1.32495 1.17944 0.577148 2.1019 0.577148Z" fill="currentColor"/>
<path fill-rule="evenodd" clip-rule="evenodd" d="M55.7711 0.577148C56.6936 0.577148 57.4414 1.32495 57.4414 2.24741V40.0055C57.4414 40.6539 57.066 41.2438 56.4786 41.5185C55.8912 41.7932 55.1979 41.703 54.7003 41.2873L32.0868 22.3954C31.3788 21.804 31.2844 20.7507 31.8758 20.0428C32.4672 19.3349 33.5205 19.2404 34.2285 19.8318L54.1009 36.4337V2.24741C54.1009 1.32495 54.8486 0.577148 55.7711 0.577148Z" fill="currentColor"/>
<path fill-rule="evenodd" clip-rule="evenodd" d="M0.431641 40.0067C0.431641 39.0842 1.17944 38.3364 2.1019 38.3364H55.7728C56.6953 38.3364 57.4431 39.0842 57.4431 40.0067C57.4431 40.9291 56.6953 41.6769 55.7728 41.6769H2.1019C1.17944 41.6769 0.431641 40.9291 0.431641 40.0067Z" fill="currentColor"/>
</svg>
