<svg width="42" height="50" viewBox="0 0 42 50" fill="none" xmlns="http://www.w3.org/2000/svg">
<path fill-rule="evenodd" clip-rule="evenodd" d="M11.4513 47.544H3.11452V2.41989H38.7593V15.4981C38.7593 16.2494 39.1562 16.6462 39.9076 16.6462C40.659 16.6462 41.0559 16.2494 41.0559 15.4981V3.64246C41.0559 1.7019 39.4763 0.122559 37.5355 0.122559H4.33725C2.39644 0.122559 0.816895 1.7019 0.816895 3.64246V46.3214C0.816895 48.262 2.39644 49.8413 4.33725 49.8413H11.4513C12.2027 49.8413 12.5996 49.4445 12.5996 48.6932C12.5996 47.9419 12.2027 47.5451 11.4513 47.5451V47.544ZM39.9076 34.5024C39.1562 34.5024 38.7593 34.8992 38.7593 35.6506V47.5429H29.7111C28.9597 47.5429 28.5629 47.9396 28.5629 48.691C28.5629 49.4423 28.9597 49.8391 29.7111 49.8391H37.5366C39.4774 49.8391 41.057 48.2597 41.057 46.3192V35.6494C41.057 34.8981 40.6601 34.5013 39.9087 34.5013L39.9076 34.5024ZM28.0504 14.3489C28.8019 14.3489 29.1987 14.7457 29.1987 15.497C29.1987 16.2483 28.8019 16.6451 28.0504 16.6451H11.4513C10.6999 16.6451 10.3031 16.2483 10.3031 15.497C10.3031 14.7457 10.6999 14.3489 11.4513 14.3489H28.0504ZM40.8335 23.1147L40.7646 23.0625L40.7035 23.0014C40.4634 22.7613 40.1377 22.7468 39.9643 22.7591C39.6586 22.7813 39.3685 22.918 39.2262 23.1081L39.1984 23.1436L19.0011 48.0897L18.9556 48.1353C18.7155 48.3753 18.701 48.701 18.7132 48.8744C18.7321 49.1455 18.8433 49.4045 19 49.559C19.2801 49.6979 19.5903 49.8413 19.7503 49.8413C20.1472 49.8413 20.5229 49.7202 20.7463 49.5223L40.8936 24.6374L40.9391 24.5918C41.1792 24.3517 41.1937 24.0261 41.1815 23.8527C41.1592 23.5471 41.0225 23.257 40.8324 23.1147H40.8335ZM10.3031 24.9808C10.3031 24.2295 10.6999 23.8327 11.4513 23.8327H20.9364C21.6878 23.8327 22.0846 24.2295 22.0846 24.9808C22.0846 25.7321 21.6878 26.1289 20.9364 26.1289H11.4513C10.6999 26.1289 10.3031 25.7321 10.3031 24.9808Z" fill="currentColor"/>
</svg>
