<svg viewBox="0 0 460 35" fill="none" xmlns="http://www.w3.org/2000/svg">
<path d="M322.3 16.7184C323.478 16.0554 324.43 15.1835 325.153 14.0987C326.009 12.8129 326.439 11.258 326.439 9.42984C326.439 6.68559 325.486 4.64851 323.582 3.31857C321.677 1.98864 319.09 1.32568 315.811 1.32568H307V33.5535H317.049C318.467 33.5535 319.821 33.3847 321.123 33.0432C322.421 32.7057 323.586 32.1633 324.619 31.428C325.651 30.6927 326.471 29.7404 327.074 28.5712C327.676 27.406 327.982 25.9797 327.982 24.3002C327.982 22.5001 327.443 20.9452 326.366 19.6313C325.354 18.3978 323.996 17.4295 322.296 16.7184H322.3ZM312.183 6.2838H316.036C317.599 6.2838 318.841 6.62532 319.753 7.30034C320.669 7.97937 321.127 9.05617 321.127 10.5308C321.127 11.7401 320.765 12.7969 320.042 13.6969C319.319 14.5969 318.174 15.0469 316.611 15.0469H312.183V6.27978V6.2838ZM321.923 26.8475C321.392 27.5105 320.685 28.0007 319.797 28.3101C318.913 28.6194 317.921 28.7761 316.832 28.7761H312.183V20.009H316.478C317.511 20.009 318.499 20.1416 319.444 20.4068C320.388 20.672 321.171 21.114 321.79 21.7367C322.409 22.3595 322.718 23.2274 322.718 24.3484C322.718 25.3529 322.453 26.1846 321.923 26.8475Z" fill="#7C925A"/>
<path d="M341.181 1.32568H335.998V33.5535H357.028V28.5953H341.181V1.32568Z" fill="#7C925A"/>
<path d="M375.886 0L361.631 33.5577H366.677L369.791 25.9879H381.548L384.517 33.5577H390.447L376.192 0H375.882H375.886ZM371.611 21.5562L375.806 11.3547L379.808 21.5562H371.611Z" fill="#7C925A"/>
<path d="M420.461 23.0345L397.31 0.220703H397.045V33.5534H402.268L402.14 12.174L425.375 34.7066H425.508V1.32563H420.373L420.461 23.0345Z" fill="#7C925A"/>
<path d="M457.251 26.4258C456.484 27.0767 455.471 27.6593 454.218 28.1736C452.964 28.6919 451.51 28.9491 449.858 28.9491C448.207 28.9491 446.664 28.6598 445.322 28.0852C443.98 27.5107 442.827 26.7111 441.871 25.6946C440.91 24.678 440.175 23.4606 439.657 22.0423C439.138 20.6239 438.881 19.077 438.881 17.3935C438.881 15.71 439.17 14.2676 439.745 12.8774C440.32 11.4912 441.095 10.2738 442.071 9.2251C443.044 8.17642 444.181 7.3648 445.479 6.79023C446.776 6.21567 448.134 5.92638 449.553 5.92638C451.116 5.92638 452.518 6.20763 453.76 6.76612C454.997 7.32863 456.034 7.88713 456.857 8.44964L458.894 3.62411C457.802 2.94508 456.452 2.33435 454.844 1.78792C453.237 1.24148 451.413 0.968262 449.376 0.968262C447.074 0.968262 444.948 1.38211 443 2.20578C441.051 3.03347 439.367 4.19064 437.953 5.68129C436.535 7.17194 435.446 8.9358 434.678 10.9729C433.911 13.01 433.529 15.252 433.529 17.7029C433.529 19.8887 433.907 21.9458 434.658 23.8785C435.41 25.8111 436.478 27.5227 437.869 29.0134C439.255 30.504 440.95 31.6853 442.959 32.5532C444.964 33.4251 447.222 33.8751 449.734 33.9032C451.297 33.9313 452.723 33.7786 454.005 33.4371C455.286 33.0996 456.395 32.6938 457.323 32.2197C458.252 31.7496 458.955 31.3478 459.425 31.0264L457.255 26.4218L457.251 26.4258Z" fill="#7C925A"/>
<path d="M16.128 22.7696L0.0441972 0H0V33.3769H5.00232V15.4851L15.9793 30.7653H16.0717L27.4022 14.7538V33.3769H32.5372V0H32.4488L16.128 22.7696Z" fill="#607147"/>
<path d="M47.6772 19.6555H62.1095V14.6974H47.6772V6.10705H63.8814V1.14893H42.498V33.3767H64.5002V28.4186H47.6772V19.6555Z" fill="#607147"/>
<path d="M96.1489 22.8577L72.9976 0.0439453H72.7324V33.3767H77.9557L77.8312 12.0013L101.067 34.5298H101.199V1.14887H96.0645L96.1489 22.8577Z" fill="#607147"/>
<path d="M135.684 1.14893H130.594V21.777C130.594 23.0466 130.268 24.2118 129.621 25.2726C128.97 26.3333 128.086 27.177 126.965 27.7958C125.844 28.4146 124.575 28.7239 123.156 28.7239C121.738 28.7239 120.573 28.4146 119.48 27.7958C118.387 27.177 117.511 26.3333 116.844 25.2726C116.181 24.2118 115.848 23.0466 115.848 21.777V1.14893H110.713V21.9095C110.713 24.2399 111.267 26.3011 112.372 28.0851C113.477 29.8691 114.976 31.2593 116.864 32.2477C118.753 33.2361 120.85 33.7303 123.152 33.7303C125.455 33.7303 127.592 33.2361 129.485 32.2477C131.373 31.2593 132.88 29.8731 134.001 28.0851C135.122 26.3011 135.684 24.2399 135.684 21.9095V1.14893Z" fill="#607147"/>
<path d="M150.294 1.14893H145.115V33.3767H150.294V1.14893Z" fill="#607147"/>
<path d="M168.488 33.7346C170.762 33.7346 172.695 33.3207 174.286 32.4971C175.881 31.6694 177.099 30.5564 177.938 29.1542C178.778 27.7519 179.2 26.209 179.2 24.5295C179.2 22.9947 178.979 21.7049 178.537 20.6562C178.095 19.6076 177.488 18.7317 176.721 18.0205C175.953 17.3133 175.09 16.7147 174.129 16.2285C173.169 15.7423 172.205 15.3204 171.228 14.9669C170.107 14.5249 169.039 14.0588 168.018 13.5726C166.997 13.0865 166.174 12.5119 165.539 11.8449C164.904 11.182 164.587 10.4065 164.587 9.52258C164.587 8.28506 165.053 7.3087 165.981 6.60155C166.909 5.89439 168.171 5.54081 169.766 5.54081C170.947 5.54081 172.185 5.75376 173.482 6.18368C174.78 6.6136 176.006 7.11986 177.155 7.71049L179.103 3.76891C177.866 3.00149 176.44 2.34656 174.832 1.80013C173.225 1.25369 171.285 0.980469 169.01 0.980469C167.09 1.04074 165.402 1.45458 163.94 2.21799C162.477 2.98541 161.336 4.01802 160.509 5.31581C159.681 6.6136 159.271 8.14845 159.271 9.92035C159.271 11.3949 159.552 12.6365 160.111 13.641C160.669 14.6454 161.401 15.4932 162.301 16.1843C163.201 16.8794 164.165 17.462 165.201 17.9321C166.234 18.4062 167.251 18.8321 168.255 19.2178C169.26 19.6036 170.188 20.0375 171.044 20.5237C171.899 21.0098 172.586 21.5804 173.101 22.2273C173.615 22.8782 173.876 23.6576 173.876 24.5737C173.876 25.6947 173.575 26.5947 172.968 27.2738C172.361 27.9528 171.61 28.447 170.71 28.7564C169.81 29.0658 168.902 29.2225 167.986 29.2225C167.13 29.2225 166.214 29.0899 165.242 28.8247C164.269 28.5595 163.321 28.2059 162.409 27.764C161.493 27.322 160.681 26.8358 159.974 26.3014L157.672 30.3314C158.644 30.9823 159.709 31.5649 160.858 32.0792C162.011 32.5975 163.225 33.0033 164.51 33.2966C165.796 33.5899 167.114 33.7386 168.472 33.7386L168.488 33.7346Z" fill="#607147"/>
<path d="M209.125 28.4186H192.302V19.6555H206.735V14.6974H192.302V6.10705H208.506V1.14893H187.123V33.3767H209.125V28.4186Z" fill="#607147"/>
<path d="M227.71 22.1707L234.978 33.3807H240.957L233.118 20.9051C234.231 20.3225 235.159 19.6033 235.886 18.7474C236.758 17.7309 237.385 16.5858 237.767 15.3161C238.148 14.0465 238.341 12.7768 238.341 11.5071C238.341 9.85577 238.052 8.38521 237.477 7.10349C236.903 5.82177 236.099 4.73693 235.066 3.84897C234.034 2.96503 232.78 2.29403 231.302 1.83599C229.827 1.37795 228.204 1.14893 226.432 1.14893H217.355V33.3767H222.535V22.1787H227.183C227.36 22.1787 227.533 22.1747 227.706 22.1667L227.71 22.1707ZM222.543 6.10705H227.324C228.445 6.10705 229.373 6.29991 230.112 6.68161C230.848 7.06733 231.434 7.54546 231.86 8.12003C232.286 8.69459 232.591 9.3013 232.768 9.93613C232.945 10.571 233.033 11.1536 233.033 11.6839C233.033 12.2464 232.937 12.8411 232.744 13.4759C232.551 14.1108 232.242 14.7094 231.816 15.2679C231.386 15.8304 230.791 16.2925 230.024 16.6621C229.257 17.0318 228.296 17.2166 227.147 17.2166H222.543V6.10705Z" fill="#607147"/>
<path d="M253.306 1.14893H248.127V33.3767H253.306V1.14893Z" fill="#607147"/>
<path d="M285.268 28.4186H268.445V19.6555H282.877V14.6974H268.445V6.10705H284.645V1.14893H263.266V33.3767H285.268V28.4186Z" fill="#607147"/>
</svg>
