<svg width="57" height="41" viewBox="0 0 57 41" fill="none" xmlns="http://www.w3.org/2000/svg">
<path d="M19.3144 0.799805C9.14805 0.799805 0.938477 8.79769 0.938477 18.6997V33.9162C0.938477 35.3884 2.18758 36.5998 3.69901 36.5998H36.7767C37.2842 36.6017 37.6972 36.2025 37.6992 35.7082V27.6524H54.2372V34.8078H52.3992V30.3254C52.3992 29.1317 50.5613 29.1317 50.5613 30.3254V34.8078H48.7216V32.1156C48.7216 30.9219 46.8836 30.9219 46.8836 32.1156V34.8078H45.0529V30.3254C45.0529 29.1316 43.2149 29.1316 43.2149 30.3254V34.8078H41.3752V32.126C41.3856 31.5851 40.904 31.1592 40.3521 31.2205C39.8814 31.2726 39.5287 31.6647 39.5372 32.126V35.7082C39.539 36.2208 39.9809 36.6277 40.5064 36.5998H54.2372V39.2885C54.2372 40.4831 56.0769 40.4831 56.0769 39.2885V26.7538C56.0751 26.2615 55.6652 25.8632 55.1598 25.8622H37.6992V18.6997C37.6992 14.1546 35.986 10.0125 33.1295 6.85912L34.4828 6.09338C35.0257 5.78621 35.5569 6.11034 35.7375 6.41684L38.7708 11.5374C39.033 11.98 38.8934 12.5037 38.4387 12.7593C37.3757 13.3539 38.2911 14.9064 39.3541 14.3118C40.6631 13.5757 41.1205 11.921 40.3647 10.6458L37.3331 5.52525C36.5788 4.25108 34.9116 3.77849 33.5603 4.53919L31.7995 5.53051C28.525 2.59075 24.1286 0.799805 19.3144 0.799805ZM19.3144 2.59176C28.4943 2.59176 35.8595 9.75846 35.8595 18.6997V34.8078H3.69901C3.17399 34.8078 2.77644 34.4276 2.77644 33.9162V18.6997C2.77644 9.75846 10.1345 2.59176 19.3144 2.59176ZM19.3179 6.16854C16.9215 6.16854 14.6699 6.80918 12.7469 7.92374C11.6888 8.53319 12.633 10.0779 13.6874 9.46224C15.3356 8.50698 17.257 7.95878 19.3179 7.95874C25.4192 7.95874 30.3456 12.757 30.3456 18.6997C30.3456 24.6424 25.4192 29.4409 19.3179 29.4408C13.2166 29.4408 8.29021 24.6424 8.29021 18.6997C8.29021 16.1568 9.19393 13.8291 10.7061 11.9901C11.4724 11.0577 10.0365 9.93885 9.2702 10.8713C7.50727 13.0153 6.45225 15.7428 6.45225 18.6997C6.45225 25.6099 12.2233 31.231 19.3179 31.231C26.4125 31.231 32.1836 25.61 32.1836 18.6997C32.1836 11.7895 26.4125 6.16854 19.3179 6.16854ZM19.3144 12.5146C15.8187 12.5146 12.9713 15.2949 12.9713 18.6997C12.9713 22.1046 15.8187 24.885 19.3144 24.885C22.8101 24.885 25.6647 22.1046 25.6647 18.6997C25.6647 15.2949 22.8101 12.5146 19.3144 12.5146ZM19.3144 14.3065C21.8168 14.3065 23.8267 16.2624 23.8267 18.6997C23.8267 21.1371 21.8168 23.0931 19.3144 23.0931C16.812 23.0931 14.8039 21.1371 14.8039 18.6997C14.8039 16.2624 16.812 14.3065 19.3144 14.3065Z" fill="currentColor"/>
</svg>
