<svg width="58" height="58" viewBox="0 0 58 58" fill="none" xmlns="http://www.w3.org/2000/svg">
<path fill-rule="evenodd" clip-rule="evenodd" d="M55.6146 41.5043C55.5141 41.4208 44.1439 33.3312 41.0738 33.8262C39.5961 34.0873 38.7509 35.0941 37.0613 37.1065L37.0499 37.12C36.7768 37.4462 36.1188 38.2256 35.6106 38.7812C34.5379 38.4317 33.4916 38.0059 32.4798 37.5069C27.2565 34.964 23.0362 30.7437 20.4933 25.5204C19.9943 24.5086 19.5685 23.4623 19.219 22.3896C19.7765 21.8795 20.5578 21.2215 20.8915 20.9408C22.9035 19.2531 23.9123 18.4055 24.174 16.9226C24.7107 13.8525 16.5794 2.48609 16.4959 2.38369C16.1256 1.85853 15.6433 1.42213 15.0839 1.106C14.5244 0.789874 13.9018 0.601905 13.2608 0.555664C9.96509 0.555664 0.555664 12.7602 0.555664 14.8177C0.555664 14.9372 0.728227 27.0811 15.7033 42.314C30.9192 57.272 43.063 57.4445 43.1825 57.4445C45.2381 57.4445 57.4445 48.0351 57.4445 44.7394C57.3978 44.0983 57.2094 43.4757 56.893 42.9162C56.5766 42.3568 56.1399 41.8746 55.6146 41.5043ZM42.972 53.6406C41.326 53.5002 31.124 52.1558 18.3808 39.6383C5.80272 26.8326 4.49237 16.6135 4.36153 15.0301C6.84715 11.1287 9.84902 7.58148 13.2855 4.48479C13.3614 4.56064 13.4619 4.67442 13.5908 4.82233C16.2263 8.42004 18.4967 12.2715 20.3682 16.3196C19.7596 16.9318 19.1163 17.5086 18.4415 18.0471C17.3951 18.8444 16.4343 19.7481 15.5743 20.7436C15.4288 20.9478 15.3252 21.1788 15.2696 21.4232C15.2139 21.6677 15.2073 21.9207 15.2501 22.1678C15.6514 23.9061 16.266 25.5883 17.08 27.1759C19.9963 33.1644 24.8354 38.0029 30.8243 40.9183C32.4116 41.7335 34.0938 42.3488 35.8325 42.7501C36.0795 42.7939 36.3327 42.7877 36.5773 42.732C36.8219 42.6763 37.0529 42.5722 37.2566 42.4259C38.2556 41.5624 39.1625 40.5978 39.9626 39.5473C40.558 38.8381 41.3526 37.8918 41.6541 37.6245C45.7125 39.4941 49.5725 41.7672 53.176 44.4094C53.3101 44.5225 53.4112 44.6136 53.4839 44.6792C53.4965 44.6905 53.5083 44.7011 53.5192 44.7109C50.4224 48.1485 46.8744 51.1511 42.972 53.6368V53.6406ZM42.2747 27.1057H46.0673C46.0628 23.0837 44.463 19.2277 41.619 16.3837C38.775 13.5396 34.919 11.9399 30.8969 11.9354V15.728C33.9136 15.731 36.8058 16.9307 38.9389 19.0638C41.072 21.1969 42.2717 24.0891 42.2747 27.1057ZM55.5488 27.1011H51.7562C51.7497 21.5709 49.5499 16.2691 45.6395 12.3586C41.729 8.44814 36.4272 6.24838 30.8969 6.24186V2.44927C37.4327 2.45679 43.6986 5.05645 48.3201 9.67794C52.9416 14.2994 55.5413 20.5654 55.5488 27.1011Z" fill="currentColor"/>
</svg>
